# xmcd CD database file
#
# Track frame offsets:
#	150
#	12638
#	26015
#	39728
#	52645
#	78572
#	88700
#	105329
#	116436
#	131251
#	145339
#	159896
#	182923
#	198044
#	210435
#	219168
#	229966
#	244016
#	251347
#
# Disc length: 3619 seconds
#
# Revision: 0
# Processed by: cddbd v1.5.1PL0 Copyright (c) Steve Scherf et al.
# Submitted via: CDex 1.51
#
DISCID=ef0e2113
DTITLE=Accident Clearinghouse - Saginaw Sweetheart
DYEAR=1996
DGENRE=Country
TTITLE0=Big City Trouble
TTITLE1=Calendar Year
TTITLE2=First Dance
TTITLE3=The Road is Rocky
TTITLE4=Drive Away
TTITLE5=Count Me Out
TTITLE6=High Mileage
TTITLE7=What Was Your Name In The States
TTITLE8=4AM
TTITLE9=Different Life
TTITLE10=I Got Friends
TTITLE11=Never To Rise
TTITLE12=I Gotta Forget
TTITLE13=The Night That Daddy Got His Gun
TTITLE14=Mikes Country Song
TTITLE15=OK, My Love
TTITLE16=I Wanna Forget That You Were Mine
TTITLE17=Flamin' Hair
TTITLE18=(You Got Me) Rolled Up Your Sleeve
EXTD=YEAR: 1996
EXTT0=
EXTT1=
EXTT2=
EXTT3=
EXTT4=
EXTT5=
EXTT6=
EXTT7=
EXTT8=
EXTT9=
EXTT10=
EXTT11=
EXTT12=
EXTT13=
EXTT14=
EXTT15=
EXTT16=
EXTT17=
EXTT18=
PLAYORDER=
